<svg width="355" height="86" viewBox="0 0 355 86" fill="none" xmlns="http://www.w3.org/2000/svg">
<path d="M351.568 0C352.421 3.56008e-05 353.141 0.186274 353.728 0.55957C354.475 1.03958 354.847 1.86675 354.847 3.04004C354.847 3.9467 354.607 5.01359 354.127 6.24023C353.274 8.37349 351.887 10.6669 349.967 13.1201C348.047 15.5733 345.781 18.0798 343.167 20.6396C340.074 23.5729 337.114 26.2129 334.287 28.5596C331.461 30.8529 329.114 32.6934 327.247 34.0801C326.128 36.5332 325.194 38.7198 324.448 40.6396C323.701 42.5061 323.194 43.8129 322.927 44.5596C324.1 42.8529 325.407 41.1728 326.847 39.5195C328.287 37.813 329.754 36.4002 331.247 35.2803C334.447 32.8803 337.461 31.6797 340.287 31.6797C341.887 31.6797 342.981 32.1601 343.568 33.1201C343.728 33.3334 343.834 33.6001 343.887 33.9199C343.94 34.2398 343.967 34.5332 343.967 34.7998C343.967 35.8131 343.701 36.8265 343.167 37.8398C342.634 38.7998 341.994 39.5467 341.247 40.0801C340.394 40.72 339.381 41.253 338.207 41.6797C337.087 42.053 335.994 42.2402 334.927 42.2402C333.807 42.2402 332.847 41.9995 332.047 41.5195L331.408 41.1201C331.301 41.9201 331.194 42.8533 331.087 43.9199C330.981 44.9333 330.927 46.0001 330.927 47.1201V48.7197C330.98 49.1997 331.034 49.7069 331.087 50.2402C331.194 51.0935 331.354 52.0803 331.568 53.2002C331.834 54.2667 332.261 55.2001 332.847 56C333.434 56.8 334.207 57.2269 335.167 57.2803C336.074 57.2803 336.955 56.9603 337.808 56.3203C338.661 55.6805 339.381 55.0135 339.967 54.3203C341.194 52.9871 342.234 51.6535 343.087 50.3203C343.994 48.9336 345.114 47.0129 346.448 44.5596C346.554 44.3998 346.635 44.3203 346.688 44.3203C346.901 44.3206 347.007 44.5603 347.007 45.04C347.007 45.36 346.928 45.6801 346.768 46C345.915 47.6 344.954 49.28 343.887 51.04C342.82 52.8 341.514 54.4534 339.967 56C339.274 56.6932 338.421 57.3333 337.408 57.9199C336.448 58.4533 335.407 58.7197 334.287 58.7197C332.367 58.7197 330.9 58.16 329.887 57.04C328.874 55.9201 328.155 54.5598 327.728 52.96C327.355 51.3067 327.167 49.7335 327.167 48.2402C327.167 46.8536 327.301 45.44 327.568 44C327.888 42.5601 328.448 41.3336 329.247 40.3203C329.727 39.7337 330.287 39.28 330.927 38.96C331.62 38.64 331.915 38.6668 331.808 39.04C331.701 39.2533 331.648 39.4665 331.648 39.6797C331.701 40.1063 331.941 40.4531 332.368 40.7197C332.794 40.933 333.327 41.04 333.967 41.04C334.607 41.04 335.274 40.933 335.967 40.7197C336.714 40.5064 337.381 40.1864 337.967 39.7598C338.66 39.2798 339.275 38.6666 339.808 37.9199C340.341 37.1201 340.608 36.2935 340.608 35.4404C340.608 34.5871 340.367 33.9997 339.887 33.6797C339.461 33.3599 338.954 33.2002 338.368 33.2002C338.101 33.2002 337.808 33.227 337.488 33.2803C337.168 33.3336 336.874 33.4129 336.608 33.5195C334.901 34.0528 333.194 35.0664 331.488 36.5596C329.834 37.9995 328.261 39.6798 326.768 41.5996C325.328 43.5196 324.02 45.4404 322.847 47.3604C322.1 48.6402 321.301 50.1335 320.448 51.8398C319.594 53.493 319.035 54.8265 318.768 55.8398C318.501 56.7997 318.047 57.413 317.408 57.6797C316.821 57.9463 316.208 58.0533 315.568 58H314.047C314.314 57.2533 314.661 56.2399 315.087 54.96C315.567 53.68 316.048 52.4001 316.528 51.1201C316.541 51.0835 316.554 51.0469 316.567 51.0107C315.464 52.7214 314.162 54.332 312.654 55.8398C311.907 56.5864 311.027 57.2265 310.014 57.7598C309.001 58.293 308.014 58.5595 307.054 58.5596C305.347 58.5596 304.174 58.0266 303.534 56.96C302.894 55.8401 302.574 54.6135 302.574 53.2803C302.574 53.0136 302.6 52.5599 302.654 51.9199C302.76 51.2266 302.867 50.5866 302.974 50C302.227 51.0133 301.32 52.1337 300.253 53.3604C299.24 54.5868 298.201 55.6272 297.134 56.4805C295.427 57.8671 293.88 58.5596 292.494 58.5596C291.16 58.5595 290.12 57.9998 289.373 56.8799C288.68 55.7599 288.333 54.3462 288.333 52.6396C288.333 51.7927 288.406 50.9418 288.55 50.0869C288.219 50.6296 287.899 51.1344 287.589 51.5996C286.789 52.8796 285.615 54.2932 284.069 55.8398C283.376 56.5331 282.549 57.1464 281.589 57.6797C280.683 58.213 279.642 58.4804 278.469 58.4805C276.549 58.4805 275.216 57.9198 274.469 56.7998C273.722 55.6798 273.349 54.2662 273.349 52.5596C273.349 51.3048 273.486 49.9691 273.757 48.5518C273.166 49.4994 272.565 50.383 271.953 51.2002C270.993 52.4268 269.82 53.5205 268.433 54.4805C267.74 54.9071 266.966 55.2796 266.113 55.5996C265.313 55.8663 264.512 56 263.712 56C262.912 56 262.192 55.8395 261.552 55.5195C260.966 55.1462 260.539 54.5595 260.273 53.7598C259.366 54.6131 258.273 55.4937 256.993 56.4004C255.766 57.2536 254.486 57.7331 253.153 57.8398C252.939 57.8932 252.725 57.9199 252.512 57.9199H252.033C250.166 57.9199 249.019 57.1998 248.592 55.7598C247.792 58.053 246.673 60.6397 245.233 63.5195C243.793 66.3995 242.086 69.2534 240.113 72.0801C238.139 74.9601 235.925 77.5198 233.472 79.7598C230.966 82.053 228.219 83.7332 225.233 84.7998C223.58 85.3864 221.899 85.6797 220.193 85.6797C217.846 85.6797 215.739 85.12 213.872 84C212.006 82.88 211.073 81.1732 211.073 78.8799C211.073 78.4533 211.099 78.0262 211.153 77.5996C211.206 77.2265 211.312 76.8 211.472 76.3203C211.632 75.9471 211.766 75.7867 211.872 75.8398C211.926 75.9465 211.953 76.107 211.953 76.3203C211.953 78.9335 212.859 80.9337 214.672 82.3203C216.432 83.707 218.486 84.4004 220.832 84.4004C222.272 84.4004 223.659 84.1597 224.993 83.6797C227.179 82.933 229.126 81.7601 230.832 80.1602C232.539 78.5602 234.006 76.8534 235.233 75.04C236.406 73.3334 237.579 71.36 238.752 69.1201C239.926 66.8801 241.046 64.5334 242.113 62.0801C243.179 59.6267 244.193 57.2533 245.153 54.96C245.575 53.9278 245.97 52.9465 246.34 52.0176C246.267 52.1179 246.196 52.22 246.122 52.3203C244.843 54.1335 243.269 55.6533 241.403 56.8799C239.589 58.1065 237.375 58.7197 234.762 58.7197C231.722 58.7197 229.35 57.8933 227.643 56.2402C225.99 54.5869 225.162 52.3729 225.162 49.5996C225.162 49.0344 225.2 48.4508 225.274 47.8486C224.697 48.8586 224.105 49.8699 223.493 50.8799C222.426 52.6398 221.119 54.2932 219.573 55.8398C218.879 56.5332 218.052 57.1464 217.092 57.6797C216.186 58.213 215.145 58.4805 213.972 58.4805C212.479 58.4804 211.386 57.9998 210.693 57.04C209.999 56.0268 209.653 54.8002 209.653 53.3604C209.653 52.9337 209.679 52.5067 209.733 52.0801C209.839 51.6001 209.945 51.1196 210.052 50.6396C210.639 48.5064 211.546 46.1328 212.773 43.5195C214.053 40.8532 215.279 38.4802 216.453 36.4004C217.146 35.2271 217.786 34.3999 218.372 33.9199C218.959 33.3866 219.599 33.0131 220.292 32.7998C220.986 32.5331 221.813 32.2399 222.773 31.9199C223.039 31.8133 223.306 31.733 223.573 31.6797C223.839 31.6264 224.133 31.5729 224.453 31.5195C223.386 32.5862 222.292 33.867 221.172 35.3604C220.106 36.8536 218.933 38.9066 217.653 41.5195C216.959 42.9062 216.266 44.4535 215.573 46.1602C214.933 47.8667 214.373 49.4667 213.893 50.96C213.413 52.4533 213.145 53.6271 213.092 54.4805C213.039 55.4934 213.173 56.213 213.493 56.6396C213.813 57.0663 214.239 57.2803 214.773 57.2803C215.679 57.2802 216.533 56.9601 217.332 56.3203C218.186 55.6803 218.933 55.0136 219.573 54.3203C220.746 52.987 221.84 51.5199 222.853 49.9199C223.883 48.3744 224.886 46.7279 225.867 44.9834C226.047 44.37 226.266 43.7488 226.523 43.1201C227.269 41.3601 228.229 39.6266 229.403 37.9199C230.576 36.2133 231.99 34.7729 233.643 33.5996C235.296 32.4265 237.136 31.7596 239.162 31.5996C239.909 31.5463 240.603 31.5998 241.243 31.7598C241.882 31.9197 242.442 32.2399 242.922 32.7197C243.349 33.0931 243.642 33.5735 243.802 34.1602C244.015 34.6934 244.122 35.2532 244.122 35.8398C244.122 37.4931 243.616 39.1733 242.603 40.8799C241.59 42.5332 240.309 43.92 238.762 45.04C237.216 46.1599 235.616 46.7197 233.962 46.7197C232.469 46.7197 231.162 46.1867 230.042 45.1201C229.562 46.7734 229.323 48.4268 229.323 50.0801C229.323 52.1067 229.775 53.8403 230.682 55.2803C231.642 56.6669 233.27 57.3604 235.563 57.3604C237.856 57.3603 239.83 56.7461 241.483 55.5195C243.189 54.2929 244.656 52.7731 245.882 50.96C246.676 49.8024 247.408 48.6752 248.078 47.5791C248.774 45.8184 249.558 43.9317 250.433 41.9199C251.553 39.4667 252.779 37.0128 254.113 34.5596C255.446 32.0531 256.886 29.7863 258.433 27.7598C260.033 25.6799 261.686 23.9996 263.393 22.7197C264.619 21.7599 265.9 21.2803 267.233 21.2803H267.792C268.006 21.2803 268.22 21.3338 268.433 21.4404C268.539 21.4937 268.592 21.5734 268.592 21.6797C268.592 21.733 268.486 21.7597 268.273 21.7598C267.74 21.8131 267.099 22.0798 266.353 22.5596C265.606 22.9862 264.699 23.9204 263.632 25.3604C263.205 26.0005 262.245 27.3609 260.752 29.4404C259.312 31.5204 257.952 34.0268 256.672 36.96C258.219 35.2 259.659 33.9469 260.993 33.2002C262.326 32.4536 263.526 32.0802 264.592 32.0801C266.299 32.0801 267.473 32.507 268.113 33.3604C268.752 34.2135 269.073 35.2799 269.073 36.5596C269.073 37.7329 268.86 38.987 268.433 40.3203C268.06 41.6536 267.579 42.9335 266.993 44.1602C266.459 45.3868 265.952 46.427 265.472 47.2803C265.099 47.9735 264.539 48.8 263.792 49.7598C263.046 50.7197 262.193 51.7065 261.233 52.7197C261.393 53.4664 261.713 54.0003 262.193 54.3203C262.726 54.6402 263.339 54.7998 264.033 54.7998C264.779 54.7998 265.553 54.6403 266.353 54.3203C267.206 54.0003 267.9 53.6001 268.433 53.1201C269.66 52.1068 270.779 50.9061 271.792 49.5195C272.806 48.133 273.739 46.6933 274.592 45.2002C274.628 45.1282 274.652 45.0801 274.663 45.0566C275.117 43.5836 275.612 42.1377 276.149 40.7197C276.949 38.7465 277.696 37.0128 278.389 35.5195C279.135 34.0268 279.642 32.9871 279.909 32.4004C280.869 30.3737 282.042 28.0795 283.429 25.5195C284.869 22.9597 286.469 20.3462 288.229 17.6797C290.042 15.0132 291.935 12.48 293.909 10.0801C295.935 7.68008 298.015 5.59984 300.149 3.83984C302.335 2.08003 304.495 0.880261 306.628 0.240234C307.215 0.0802364 307.749 0 308.229 0C309.135 2.39341e-05 309.882 0.266496 310.469 0.799805C311.109 1.27982 311.429 2.13378 311.429 3.36035C311.429 4.21356 311.215 5.27988 310.788 6.55957C310.095 8.42618 308.922 10.5066 307.269 12.7998C305.616 15.0397 303.669 17.3866 301.429 19.8398C299.189 22.2398 296.816 24.6133 294.309 26.96C291.856 29.3066 289.455 31.4929 287.109 33.5195C284.762 35.5462 282.682 37.2797 280.869 38.7197C280.389 39.7329 279.936 40.7198 279.509 41.6797C279.136 42.6397 278.789 43.5738 278.469 44.4805C278.309 44.9604 278.068 45.68 277.748 46.6396C277.428 47.5996 277.135 48.6665 276.869 49.8398C276.602 51.0132 276.469 52.1335 276.469 53.2002C276.469 54.2668 276.682 55.2 277.109 56C277.535 56.7467 278.309 57.1201 279.429 57.1201C280.336 57.12 281.162 56.8267 281.909 56.2402C282.708 55.6536 283.429 55.0136 284.069 54.3203C286.191 51.8946 288.097 49.1088 289.788 45.9648C290.746 43.7379 291.995 41.6427 293.534 39.6797C295.134 37.6531 296.894 35.9204 298.814 34.4805C299.934 33.6805 301.294 33.0396 302.894 32.5596C304.547 32.0263 306.201 31.7598 307.854 31.7598C309.72 31.7598 311.347 32.053 312.734 32.6396C314.174 33.173 315.16 33.9467 315.694 34.96C314.574 36.4 313.427 38.187 312.253 40.3203C311.08 42.4001 310.067 44.2935 309.214 46C308.628 47.1733 307.987 48.6404 307.293 50.4004C306.6 52.1068 306.253 53.5733 306.253 54.7998C306.253 55.3331 306.387 55.8671 306.654 56.4004C306.92 56.9335 307.428 57.2002 308.174 57.2002C309.027 57.2001 309.854 56.88 310.654 56.2402C311.454 55.6003 312.12 54.9602 312.654 54.3203C313.88 52.987 315.001 51.5199 316.014 49.9199C317.001 48.361 317.987 46.6999 318.974 44.9385C319.999 42.4257 321.076 39.7928 322.207 37.04C323.861 33.1468 325.621 29.2803 327.488 25.4404C329.408 21.5472 331.488 17.8938 333.728 14.4805C336.021 11.0671 338.474 8.13302 341.087 5.67969C343.754 3.17304 346.635 1.36023 349.728 0.240234C349.994 0.186924 350.288 0.133388 350.608 0.0800781C350.928 0.0267737 351.248 0 351.568 0ZM203.142 2.40039C206.662 2.4004 209.248 3.04032 210.902 4.32031C212.608 5.60026 213.462 7.09323 213.462 8.7998C213.462 10.1331 212.955 11.52 211.942 12.96C210.929 14.3465 209.462 15.5731 207.542 16.6396C205.409 17.8129 203.062 18.7471 200.502 19.4404C197.996 20.0804 195.569 20.5599 193.222 20.8799C190.876 21.1465 188.929 21.3595 187.382 21.5195H187.302C187.142 21.5195 187.062 21.4401 187.062 21.2803C187.062 21.0137 187.248 20.8532 187.621 20.7998C191.141 20.4265 194.582 19.7331 197.942 18.7197C201.302 17.6531 204.181 16.3999 206.581 14.96C207.915 14.16 208.982 13.1733 209.782 12C210.582 10.8268 210.982 9.65365 210.982 8.48047C210.982 7.14713 210.315 6.00004 208.982 5.04004C207.702 4.02677 205.542 3.51958 202.502 3.51953C197.862 3.51953 193.516 4.29327 189.462 5.83984C185.462 7.33314 181.809 9.38677 178.502 12C175.249 14.56 172.395 17.4932 169.942 20.7998C167.542 24.0531 165.622 27.4667 164.182 31.04C162.795 34.56 161.941 38.0004 161.621 41.3604C161.568 41.8935 161.516 42.4 161.462 42.8799V44.3203C161.462 48.4268 162.235 51.7604 163.782 54.3203C165.328 56.8802 167.382 58.7199 169.942 59.8398C172.502 61.0132 175.302 61.5996 178.342 61.5996C181.489 61.5996 184.662 61.0666 187.862 60C191.062 58.9333 194.048 57.4663 196.822 55.5996C199.595 53.6796 201.861 51.4398 203.621 48.8799C205.435 46.3199 206.448 43.573 206.661 40.6396C206.875 38.4532 206.288 36.7204 204.902 35.4404C203.568 34.1071 201.329 33.5732 198.182 33.8398C193.969 34.2132 190.128 35.3068 186.661 37.1201C183.195 38.8801 180.235 40.9337 177.782 43.2803C175.382 45.6268 173.596 47.9202 172.422 50.1602C172.369 50.3201 172.235 50.4004 172.022 50.4004C171.542 50.4004 171.382 50.1864 171.542 49.7598C172.769 47.4666 174.635 45.0928 177.142 42.6396C179.649 40.1864 182.689 38.0535 186.262 36.2402C189.835 34.3736 193.809 33.2532 198.182 32.8799C198.555 32.8266 198.902 32.7998 199.222 32.7998H200.262C203.729 32.7998 206.235 33.5735 207.782 35.1201C209.328 36.6134 209.995 38.5065 209.782 40.7998C209.515 43.9997 208.369 46.933 206.342 49.5996C204.369 52.2663 201.808 54.5605 198.661 56.4805C195.568 58.4002 192.182 59.8666 188.502 60.8799C184.822 61.9465 181.169 62.4804 177.542 62.4805C173.702 62.4805 170.128 61.8138 166.822 60.4805C163.568 59.2005 160.928 57.1736 158.902 54.4004C156.928 51.5738 155.942 47.8935 155.942 43.3604V42.0801C155.942 41.6534 155.969 41.2265 156.022 40.7998C156.342 37.3866 157.302 33.8667 158.902 30.2402C160.555 26.6136 162.769 23.1465 165.542 19.8398C168.369 16.5333 171.676 13.5732 175.462 10.96C179.302 8.34672 183.542 6.26635 188.182 4.71973C192.822 3.1731 197.809 2.40039 203.142 2.40039ZM263.472 33.3604C262.619 33.3605 261.632 33.84 260.512 34.7998C259.445 35.7598 258.353 36.9605 257.233 38.4004C256.166 39.8402 255.179 41.2799 254.273 42.7197C254.06 43.093 253.686 43.7332 253.153 44.6396C252.619 45.5463 252.059 46.5864 251.472 47.7598C250.939 48.9331 250.459 50.1069 250.033 51.2803C249.659 52.4535 249.472 53.4938 249.472 54.4004C249.472 55.9467 250.166 56.7196 251.552 56.7197C252.512 56.7197 253.473 56.3463 254.433 55.5996C255.446 54.7997 256.406 53.8128 257.313 52.6396C258.273 51.4664 259.153 50.2398 259.953 48.96C260.806 47.68 261.499 46.5329 262.033 45.5195C262.353 44.9862 262.78 44.1598 263.313 43.04C263.846 41.8668 264.326 40.6135 264.752 39.2803C265.179 37.9469 265.393 36.7731 265.393 35.7598C265.393 35.0132 265.259 34.4266 264.993 34C264.726 33.5733 264.219 33.3604 263.472 33.3604ZM308.894 33.04C307.241 33.04 305.641 33.4938 304.094 34.4004C302.548 35.307 301.134 36.4532 299.854 37.8398C298.627 39.2798 297.427 40.8529 296.253 42.5596C295.08 44.2662 294.12 45.9998 293.373 47.7598C292.68 49.5197 292.333 51.1999 292.333 52.7998C292.333 53.6531 292.467 54.4268 292.734 55.1201C293.054 55.7599 293.56 56.0799 294.253 56.0801C295.267 56.0801 296.36 55.5469 297.534 54.4805C298.76 53.3605 299.934 52.0271 301.054 50.4805C302.227 48.8805 303.268 47.3599 304.174 45.9199C305.134 44.427 305.88 43.2804 306.413 42.4805C307.533 40.7205 308.574 39.2534 309.534 38.0801C310.494 36.9067 311.987 36.0004 314.014 35.3604H314.253C314.36 35.307 314.467 35.2803 314.574 35.2803C314.094 34.5337 313.294 33.9729 312.174 33.5996C311.054 33.2263 309.961 33.0401 308.894 33.04ZM239.962 32.6396C239.002 32.6397 237.856 33.2271 236.523 34.4004C235.243 35.5737 234.015 37.0933 232.842 38.96C232.469 39.5999 232.043 40.3469 231.563 41.2002C231.136 42.0535 230.763 42.96 230.443 43.9199C230.816 44.4531 231.242 44.8535 231.722 45.1201C232.255 45.3335 232.789 45.4404 233.323 45.4404C234.603 45.4404 235.936 44.96 237.323 44C238.709 42.9868 239.829 41.8135 240.682 40.4805C241.055 39.8938 241.376 39.1201 241.643 38.1602C241.963 37.2003 242.122 36.2936 242.122 35.4404C242.122 34.6938 241.963 34.0529 241.643 33.5195C241.376 32.933 240.816 32.6396 239.962 32.6396ZM308.069 1.36035C307.375 1.36036 306.549 1.62694 305.589 2.16016C304.629 2.64016 303.749 3.28008 302.949 4.08008C301.615 5.36002 300.042 7.19983 298.229 9.59961C296.469 11.9463 294.602 14.6397 292.628 17.6797C290.655 20.7197 288.708 23.8935 286.788 27.2002C284.922 30.5068 283.242 33.7333 281.748 36.8799C283.402 35.4399 285.322 33.7331 287.509 31.7598C289.696 29.7332 291.936 27.5735 294.229 25.2803C296.522 22.9871 298.682 20.6936 300.708 18.4004C302.788 16.1071 304.575 13.9466 306.069 11.9199C307.615 9.89327 308.656 8.13297 309.189 6.63965C309.669 5.25342 309.908 4.18701 309.909 3.44043C309.909 2.05376 309.295 1.36035 308.069 1.36035ZM351.648 0.879883C350.955 0.879883 350.181 1.09293 349.328 1.51953C348.474 1.9462 347.674 2.53361 346.927 3.28027C344.421 5.62682 341.994 8.4801 339.648 11.8398C337.301 15.1998 335.141 18.6936 333.167 22.3203C331.194 25.8935 329.46 29.2806 327.967 32.4805C331.007 30.1871 333.754 27.8929 336.207 25.5996C338.661 23.3063 341.168 20.8268 343.728 18.1602C344.475 17.3602 345.435 16.2932 346.608 14.96C347.834 13.6267 349.007 12.1863 350.127 10.6396C351.301 9.09303 352.181 7.60011 352.768 6.16016C353.301 4.88018 353.568 3.84003 353.568 3.04004C353.568 1.60016 352.928 0.880009 351.648 0.879883ZM224.613 21.8398C225.199 21.8399 225.679 22.0539 226.052 22.4805C226.479 22.8538 226.693 23.36 226.693 24C226.693 24.6933 226.399 25.3868 225.813 26.0801C225.226 26.72 224.533 27.04 223.733 27.04C223.146 27.04 222.639 26.827 222.212 26.4004C221.839 25.9737 221.653 25.4665 221.653 24.8799C221.653 24.1333 221.946 23.4665 222.533 22.8799C223.173 22.2933 223.866 21.9465 224.613 21.8398Z" fill="#470B0B"/>
<path d="M76.0404 1.76001C77.5336 1.65339 78.8672 1.7336 80.0404 2.00024C81.2669 2.2136 82.2538 2.63962 83.0004 3.27954C83.6936 3.81278 84.1999 4.47974 84.5199 5.27954C84.8399 6.07954 85.0004 6.90667 85.0004 7.76001C85.0004 7.97321 84.9736 8.18646 84.9203 8.39966C84.9203 8.61299 84.8935 8.85369 84.8402 9.12036C84.6802 9.97355 84.3602 10.6672 83.8802 11.2004C83.6669 11.4137 83.4529 11.5198 83.2396 11.5198C82.8667 11.5196 82.8398 11.2797 83.1595 10.8C83.6395 10.16 83.8802 9.3864 83.8802 8.47974C83.8802 8.00001 83.7999 7.57361 83.64 7.20044C83.2667 6.18711 82.5465 5.44021 81.4799 4.96021C80.4666 4.42691 79.2668 4.16043 77.8802 4.1604C74.8936 4.1604 71.7465 5.22631 68.4398 7.35962C66.0399 8.90622 63.587 10.9867 61.0804 13.5999C58.6271 16.1599 56.1467 19.0405 53.64 22.2405C51.1868 25.4404 48.7329 28.7997 46.2797 32.3196H58.0404C58.5203 31.3597 58.9999 30.3995 59.4799 29.4397C60.0132 28.4798 60.5471 27.5198 61.0804 26.5598C63.0537 22.9866 65.0796 19.5728 67.1595 16.3196C69.2929 13.013 71.1869 10.0263 72.8402 7.35962C73 7.09336 73.1599 6.96036 73.3197 6.96021C73.5329 6.96021 73.6667 7.06648 73.7201 7.27954C73.7734 7.49287 73.7199 7.68009 73.5599 7.84009C71.1067 11.5733 68.9471 15.52 67.0804 19.6799C65.2671 23.8399 63.6128 28.053 62.1195 32.3196H66.0404C66.1467 32.3197 66.1995 32.3734 66.1996 32.4797C66.1996 32.693 65.9865 33.0131 65.5599 33.4397C65.1866 33.8664 64.8399 34.0803 64.5199 34.0803H61.4799C60.9999 35.4669 60.4134 37.3335 59.7201 39.6799C59.0801 41.9733 58.4937 44.3735 57.9603 46.8801C57.4803 49.3868 57.2396 51.68 57.2396 53.76C57.2396 55.68 57.5328 57.1738 58.1195 58.2405C58.7595 59.307 59.7472 59.8401 61.0804 59.8401H61.5599C61.7199 59.8401 61.8804 59.8133 62.0404 59.76C62.9469 59.5999 63.8537 59.0936 64.7601 58.2405C65.7201 57.3872 66.6533 56.3736 67.5599 55.2004C68.8399 53.5471 70.0138 51.7868 71.0804 49.9202C71.236 49.648 71.3845 49.3842 71.5287 49.1301C71.5296 49.1268 71.5307 49.1236 71.5316 49.1204C73.1849 42.987 76.4915 38.1064 81.4515 34.4797C82.4648 33.7332 83.7181 33.1466 85.2113 32.72C86.7046 32.24 88.1984 32.0002 89.6918 32.0002C91.7715 32.0003 93.5847 32.4531 95.1312 33.3596L95.3715 33.1204C96.5981 31.307 97.8245 29.7865 99.0511 28.5598C100.278 27.3332 101.745 26.5337 103.452 26.1604C101.638 28.1337 99.9046 30.64 98.2513 33.6799C96.598 36.6666 95.0784 39.8404 93.6918 43.2004C92.3585 46.5604 91.1311 49.7601 90.0111 52.8C88.8912 55.7865 87.9312 58.293 87.1312 60.3196C90.0645 58.8263 92.7045 56.8262 95.0511 54.3196C96.6858 52.5759 98.1467 50.7329 99.4349 48.7913C101.117 42.8121 104.393 38.0413 109.264 34.4797C110.277 33.7332 111.531 33.1466 113.024 32.72C114.517 32.24 116.011 32.0002 117.504 32.0002C119.584 32.0003 121.397 32.4531 122.944 33.3596L123.184 33.1204C124.411 31.307 125.637 29.7865 126.864 28.5598C128.09 27.3332 129.557 26.5337 131.264 26.1604C129.451 28.1337 127.717 30.64 126.064 33.6799C124.411 36.6666 122.891 39.8404 121.504 43.2004C120.171 46.5604 118.944 49.7601 117.824 52.8C116.704 55.7865 115.744 58.293 114.944 60.3196C117.877 58.8263 120.517 56.8262 122.864 54.3196C125.264 51.7597 127.29 48.9868 128.944 46.0002C129.033 45.8213 129.125 45.6637 129.217 45.5276C129.495 44.875 129.795 44.2054 130.117 43.5198C131.397 40.8532 132.623 38.4796 133.796 36.3997C134.489 35.2265 135.13 34.4001 135.716 33.9202C136.303 33.3869 136.943 33.0134 137.636 32.8C138.329 32.5334 139.157 32.2402 140.117 31.9202C140.383 31.8135 140.65 31.7332 140.916 31.6799C141.183 31.6266 141.476 31.5731 141.796 31.5198C140.73 32.5864 139.636 33.8663 138.516 35.3596C137.449 36.8529 136.276 38.9066 134.996 41.5198C134.303 42.9064 133.61 44.4537 132.916 46.1604C132.276 47.867 131.717 49.467 131.237 50.9602C130.757 52.4534 130.489 53.6264 130.436 54.4797C130.383 55.4931 130.516 56.2132 130.836 56.6399C131.156 57.0666 131.583 57.2795 132.117 57.2795C133.023 57.2795 133.876 56.9595 134.676 56.3196C135.529 55.6796 136.276 55.0129 136.916 54.3196C138.09 52.9863 139.183 51.52 140.197 49.9202C141.263 48.3203 142.303 46.6133 143.316 44.8C143.476 44.5867 143.61 44.4798 143.716 44.4797C143.93 44.4797 144.036 44.6402 144.036 44.9602C144.036 45.2267 143.983 45.4399 143.876 45.5999C142.916 47.3599 141.903 49.1201 140.836 50.8801C139.77 52.6401 138.463 54.2935 136.916 55.8401C136.223 56.5334 135.396 57.1466 134.436 57.6799C133.529 58.2132 132.489 58.4797 131.316 58.4797C129.823 58.4796 128.73 58 128.036 57.0403C127.343 56.0269 126.996 54.7996 126.996 53.3596C126.996 52.9332 127.023 52.5068 127.077 52.0803C127.183 51.6003 127.289 51.1199 127.396 50.6399C127.461 50.4048 127.53 50.1669 127.602 49.926C127.359 50.2984 127.114 50.6706 126.864 51.0403C125.797 52.6401 124.57 54.1332 123.184 55.5198C122.011 56.7998 120.677 57.9736 119.184 59.0403C117.744 60.1069 116.144 61.0401 114.384 61.8401C113.104 64.8268 111.744 67.5737 110.304 70.0803C108.864 72.5868 107.211 74.6931 105.344 76.3997C103.477 78.1063 101.237 79.2534 98.6234 79.8401C97.7702 80.0534 96.917 80.1604 96.0638 80.1604C94.4641 80.1604 93.2642 79.76 92.4642 78.9602C91.6643 78.2136 91.2641 77.2802 91.264 76.1604C91.264 75.2004 91.584 74.1602 92.224 73.0403C92.864 71.9737 93.8239 71.0137 95.1039 70.1604C96.7571 69.0405 98.2501 68.133 99.5834 67.4397C100.97 66.7997 102.464 66.133 104.064 65.4397C105.664 64.7997 107.664 63.92 110.064 62.8C110.917 61.0935 111.743 59.1467 112.543 56.9602C113.343 54.7735 114.117 52.6131 114.864 50.4797C115.664 48.3465 116.411 46.5068 117.104 44.9602C116.891 45.1736 116.464 45.7333 115.824 46.6399C115.184 47.5464 114.704 48.24 114.384 48.72C113.584 49.7866 112.597 51.0933 111.424 52.6399C110.251 54.1332 108.997 55.4131 107.663 56.4797C105.957 57.8664 104.41 58.5598 103.024 58.5598C101.69 58.5598 100.65 58.0001 99.9037 56.8801C99.2104 55.7601 98.8636 54.3466 98.8636 52.6399C98.8637 52.1578 98.8916 51.6757 98.9457 51.1936C97.9035 52.7352 96.7132 54.178 95.3715 55.5198C94.1981 56.7998 92.8648 57.9736 91.3715 59.0403C89.9315 60.1069 88.3315 61.0401 86.5717 61.8401C85.2917 64.8268 83.9316 67.5737 82.4916 70.0803C81.0517 72.5868 79.3981 74.6931 77.5316 76.3997C75.6649 78.1063 73.4242 79.2534 70.8109 79.8401C69.9577 80.0534 69.1045 80.1604 68.2513 80.1604C66.6516 80.1604 65.4517 79.76 64.6517 78.9602C63.8518 78.2136 63.4516 77.2802 63.4515 76.1604C63.4515 75.2004 63.7715 74.1602 64.4115 73.0403C65.0515 71.9737 66.0114 71.0137 67.2914 70.1604C68.9446 69.0405 70.4376 68.133 71.7709 67.4397C73.1575 66.7997 74.6513 66.133 76.2513 65.4397C77.8513 64.7997 79.8514 63.92 82.2513 62.8C83.1046 61.0935 83.9309 59.1467 84.7308 56.9602C85.5308 54.7735 86.3045 52.6131 87.0511 50.4797C87.8511 48.3465 88.5981 46.5068 89.2914 44.9602C89.078 45.1736 88.651 45.7333 88.0111 46.6399C87.3712 47.5464 86.8917 48.24 86.5717 48.72C85.7717 49.7866 84.7849 51.0933 83.6117 52.6399C82.4384 54.1332 81.1843 55.4131 79.851 56.4797C78.1443 57.8664 76.5979 58.5598 75.2113 58.5598C73.878 58.5598 72.8379 58.0001 72.0912 56.8801C71.3979 55.7601 71.0511 54.3466 71.0511 52.6399C71.0511 52.3502 71.0609 52.0605 71.0804 51.7708C70.0215 53.5887 68.8496 55.2929 67.5599 56.8801C66.5466 58.0534 65.4797 59.0669 64.3597 59.9202C63.2399 60.7733 62.0667 61.3064 60.8402 61.5198C60.5203 61.5731 60.2002 61.5998 59.8802 61.5999C59.6137 61.6532 59.3202 61.6799 59.0004 61.6799C57.4537 61.6799 56.0936 61.2262 54.9203 60.3196C53.747 59.4663 52.9466 58.0001 52.5199 55.9202C52.4132 55.3336 52.333 54.7202 52.2797 54.0803C52.2263 53.4405 52.1996 52.827 52.1996 52.2405C52.1996 49.1472 52.7335 46.0268 53.8002 42.8801C54.9201 39.7336 56.0663 36.8002 57.2396 34.0803H44.9203C44.067 35.2536 43.2398 36.48 42.4398 37.76C41.6399 38.9865 40.8135 40.2132 39.9603 41.4397C38.4137 43.6797 36.5464 46.0531 34.3597 48.5598C32.2264 51.0131 29.8797 53.3599 27.3197 55.5999C24.7597 57.7865 22.0663 59.627 19.2396 61.1204C16.4665 62.6135 13.6667 63.4666 10.8402 63.6799C10.6269 63.7333 10.3862 63.76 10.1195 63.76H9.3197C7.50647 63.76 5.77276 63.44 4.11951 62.8C2.46651 62.1601 1.37354 60.9333 0.84021 59.1204C0.68021 58.6404 0.599976 58.1064 0.599976 57.5198C0.600022 56.0799 1.05371 54.7731 1.96033 53.5999C2.17354 53.3867 2.38676 53.2538 2.59998 53.2004C2.75994 53.0938 2.84017 53.1999 2.84021 53.5198C3.00021 56.1331 3.9066 58.0004 5.55994 59.1204C7.26656 60.2936 9.26668 60.8801 11.5599 60.8801C13.7465 60.8801 15.9864 60.4264 18.2797 59.5198C20.6263 58.6131 22.7066 57.3867 24.5199 55.8401C26.8666 53.7601 29.027 51.3599 31.0004 48.6399C33.027 45.92 34.9469 43.1729 36.7601 40.3997C37.4 39.3332 38.0669 38.2669 38.7601 37.2004C39.4534 36.1338 40.1469 35.0936 40.8402 34.0803H20.9203C20.8137 34.0803 20.7602 34.0267 20.7601 33.9202C20.7601 33.6536 20.9465 33.3334 21.3197 32.9602C21.7462 32.5337 22.0931 32.3197 22.3597 32.3196H41.9603C44.3068 28.8532 46.7332 25.4668 49.2396 22.1604C51.7463 18.8004 54.2802 15.7335 56.8402 12.9602C59.9869 9.65356 63.2667 7.01361 66.6801 5.04028C70.1467 3.01362 73.2671 1.92001 76.0404 1.76001ZM81.5316 64.3196C79.8783 65.1729 77.7446 66.0803 75.1312 67.0403C72.5713 68.0536 70.1442 69.4405 67.851 71.2004C66.8379 72.0003 66.0916 72.8268 65.6117 73.6799C65.0784 74.5333 64.8109 75.3337 64.8109 76.0803C64.811 76.7735 65.0517 77.3602 65.5316 77.8401C66.0116 78.3199 66.7579 78.5597 67.7709 78.5598C68.1442 78.5598 68.5445 78.5331 68.9711 78.4797C69.3977 78.4264 69.8514 78.3204 70.3314 78.1604C72.198 77.5738 73.8247 76.5335 75.2113 75.0403C76.5979 73.6004 77.7976 71.9201 78.8109 70.0002C79.8776 68.1336 80.7849 66.2396 81.5316 64.3196ZM109.344 64.3196C107.691 65.1729 105.557 66.0803 102.944 67.0403C100.384 68.0536 97.9567 69.4405 95.6635 71.2004C94.6504 72.0003 93.9041 72.8268 93.4242 73.6799C92.8909 74.5333 92.6234 75.3337 92.6234 76.0803C92.6235 76.7735 92.8642 77.3602 93.3441 77.8401C93.8241 78.3199 94.5704 78.5597 95.5834 78.5598C95.9567 78.5598 96.357 78.5331 96.7836 78.4797C97.2102 78.4264 97.6639 78.3204 98.1439 78.1604C100.011 77.5738 101.637 76.5335 103.024 75.0403C104.41 73.6004 105.61 71.9201 106.623 70.0002C107.69 68.1336 108.597 66.2396 109.344 64.3196ZM91.4515 33.2004C89.9049 33.2004 88.3576 33.6264 86.8109 34.4797C85.3176 35.3331 83.9575 36.4535 82.7308 37.8401C80.9176 39.8133 79.3979 41.9473 78.1713 44.2405C76.9447 46.4803 76.0917 48.4538 75.6117 50.1604C75.3451 51.1203 75.2113 52.1071 75.2113 53.1204C75.2113 53.9202 75.3183 54.6139 75.5316 55.2004C75.7983 55.7867 76.2513 56.0802 76.891 56.0803C77.9577 56.0803 79.078 55.5464 80.2513 54.4797C81.4246 53.3598 82.5976 52.0263 83.7709 50.4797C84.9441 48.8798 85.9844 47.3601 86.891 45.9202C87.851 44.4268 88.5711 43.2797 89.0511 42.4797C89.8511 41.2531 90.7051 39.9464 91.6117 38.5598C92.5182 37.1733 93.5577 35.6533 94.7308 34.0002C93.7176 33.467 92.6247 33.2005 91.4515 33.2004ZM119.264 33.2004C117.717 33.2004 116.17 33.6264 114.623 34.4797C113.13 35.3331 111.77 36.4535 110.543 37.8401C108.73 39.8133 107.21 41.9473 105.984 44.2405C104.757 46.4803 103.904 48.4538 103.424 50.1604C103.158 51.1203 103.024 52.1071 103.024 53.1204C103.024 53.9202 103.131 54.6139 103.344 55.2004C103.611 55.7867 104.064 56.0802 104.703 56.0803C105.77 56.0803 106.891 55.5464 108.064 54.4797C109.237 53.3598 110.41 52.0263 111.583 50.4797C112.757 48.8798 113.797 47.3601 114.703 45.9202C115.663 44.4268 116.384 43.2797 116.864 42.4797C117.664 41.2531 118.518 39.9464 119.424 38.5598C120.331 37.1733 121.37 35.6533 122.543 34.0002C121.53 33.467 120.437 33.2005 119.264 33.2004ZM141.956 21.8401C142.543 21.8401 143.023 22.0533 143.396 22.4797C143.823 22.8531 144.036 23.3602 144.036 24.0002C144.036 24.6935 143.743 25.3871 143.157 26.0803C142.57 26.7202 141.876 27.0402 141.077 27.0403C140.49 27.0403 139.983 26.8263 139.556 26.3997C139.183 25.9731 138.996 25.4666 138.996 24.8801C138.996 24.1335 139.29 23.4668 139.876 22.8801C140.516 22.2935 141.21 21.9468 141.956 21.8401Z" fill="#470B0B"/>
</svg>
